<?xml version="1.0" encoding="UTF-8" standalone="no"?>
<!DOCTYPE svg PUBLIC "-//W3C//DTD SVG 1.1//EN"
 "http://www.w3.org/Graphics/SVG/1.1/DTD/svg11.dtd">
<!-- Generated by graphviz version 2.40.1 (20161225.0304)
 -->
<!-- Title: dependencies Pages: 1 -->
<svg width="808pt" height="284pt"
 viewBox="0.00 0.00 808.00 284.00" xmlns="http://www.w3.org/2000/svg" xmlns:xlink="http://www.w3.org/1999/xlink">
<g id="graph0" class="graph" transform="scale(1 1) rotate(0) translate(4 280)">
<title>dependencies</title>
<polygon fill="#ffffff" stroke="transparent" points="-4,4 -4,-280 804,-280 804,4 -4,4"/>
<text text-anchor="start" x="379.0091" y="-42.4" font-family="sans-serif" font-weight="bold" font-size="14.00" fill="#000000">Legend</text>
<polygon fill="#ffffb3" stroke="transparent" points="166,-10 166,-30 186,-30 186,-10 166,-10"/>
<text text-anchor="start" x="189.629" y="-15.4" font-family="sans-serif" font-size="14.00" fill="#000000"> &#160;Declarations</text>
<polygon fill="#8dd3c7" stroke="transparent" points="279,-10 279,-30 299,-30 299,-10 279,-10"/>
<text text-anchor="start" x="302.7251" y="-15.4" font-family="sans-serif" font-size="14.00" fill="#000000"> &#160;Module</text>
<polygon fill="#80b1d3" stroke="transparent" points="365,-10 365,-30 385,-30 385,-10 365,-10"/>
<text text-anchor="start" x="388.7812" y="-15.4" font-family="sans-serif" font-size="14.00" fill="#000000"> &#160;Bootstrap</text>
<polygon fill="#fdb462" stroke="transparent" points="462,-10 462,-30 482,-30 482,-10 462,-10"/>
<text text-anchor="start" x="485.6732" y="-15.4" font-family="sans-serif" font-size="14.00" fill="#000000"> &#160;Providers</text>
<polygon fill="#fb8072" stroke="transparent" points="558,-10 558,-30 578,-30 578,-10 558,-10"/>
<text text-anchor="start" x="581.7258" y="-15.4" font-family="sans-serif" font-size="14.00" fill="#000000"> &#160;Exports</text>
<g id="clust1" class="cluster">
<title>cluster_UserInfoModule</title>
<polygon fill="none" stroke="#000000" stroke-dasharray="1,5" points="8,-70 8,-268 792,-268 792,-70 8,-70"/>
</g>
<g id="clust2" class="cluster">
<title>cluster_UserInfoModule_declarations</title>
<polygon fill="none" stroke="#000000" points="636,-78 636,-130 784,-130 784,-78 636,-78"/>
</g>
<g id="clust4" class="cluster">
<title>cluster_UserInfoModule_imports</title>
<polygon fill="none" stroke="#000000" points="188,-78 188,-130 628,-130 628,-78 188,-78"/>
</g>
<g id="clust5" class="cluster">
<title>cluster_UserInfoModule_exports</title>
<polygon fill="none" stroke="#000000" points="376,-208 376,-260 526,-260 526,-208 376,-208"/>
</g>
<g id="clust7" class="cluster">
<title>cluster_UserInfoModule_providers</title>
<polygon fill="none" stroke="#000000" points="16,-78 16,-130 180,-130 180,-78 16,-78"/>
</g>
<!-- UserInfoComponent -->
<g id="node1" class="node">
<title>UserInfoComponent</title>
<polygon fill="#ffffb3" stroke="#000000" points="775.58,-122 644.42,-122 644.42,-86 775.58,-86 775.58,-122"/>
<text text-anchor="middle" x="710" y="-99.8" font-family="Times,serif" font-size="14.00" fill="#000000">UserInfoComponent</text>
</g>
<!-- UserInfoModule -->
<g id="node2" class="node">
<title>UserInfoModule</title>
<polygon fill="#8dd3c7" stroke="#000000" points="505.7978,-187 502.7978,-191 481.7978,-191 478.7978,-187 396.2022,-187 396.2022,-151 505.7978,-151 505.7978,-187"/>
<text text-anchor="middle" x="451" y="-164.8" font-family="Times,serif" font-size="14.00" fill="#000000">UserInfoModule</text>
</g>
<!-- UserInfoComponent&#45;&gt;UserInfoModule -->
<g id="edge1" class="edge">
<title>UserInfoComponent&#45;&gt;UserInfoModule</title>
<path fill="none" stroke="#000000" d="M710,-122.2843C710,-143.3211 710,-175 710,-175 710,-175 515.9272,-175 515.9272,-175"/>
<polygon fill="#000000" stroke="#000000" points="515.9273,-171.5001 505.9272,-175 515.9272,-178.5001 515.9273,-171.5001"/>
</g>
<!-- UserInfoComponent  -->
<g id="node6" class="node">
<title>UserInfoComponent </title>
<polygon fill="#fb8072" stroke="#000000" points="518.0807,-252 383.9193,-252 383.9193,-216 518.0807,-216 518.0807,-252"/>
<text text-anchor="middle" x="451" y="-229.8" font-family="Times,serif" font-size="14.00" fill="#000000">UserInfoComponent </text>
</g>
<!-- UserInfoModule&#45;&gt;UserInfoComponent  -->
<g id="edge5" class="edge">
<title>UserInfoModule&#45;&gt;UserInfoComponent </title>
<path fill="none" stroke="#000000" stroke-dasharray="5,2" d="M451,-187.1061C451,-187.1061 451,-205.991 451,-205.991"/>
<polygon fill="#000000" stroke="#000000" points="447.5001,-205.9909 451,-215.991 454.5001,-205.991 447.5001,-205.9909"/>
</g>
<!-- FormsModule -->
<g id="node3" class="node">
<title>FormsModule</title>
<polygon fill="#8dd3c7" stroke="#000000" points="619.8288,-122 616.8288,-126 595.8288,-126 592.8288,-122 524.1712,-122 524.1712,-86 619.8288,-86 619.8288,-122"/>
<text text-anchor="middle" x="572" y="-99.8" font-family="Times,serif" font-size="14.00" fill="#000000">FormsModule</text>
</g>
<!-- FormsModule&#45;&gt;UserInfoModule -->
<g id="edge2" class="edge">
<title>FormsModule&#45;&gt;UserInfoModule</title>
<path fill="none" stroke="#000000" d="M572,-122.0225C572,-139.3734 572,-163 572,-163 572,-163 515.8355,-163 515.8355,-163"/>
<polygon fill="#000000" stroke="#000000" points="515.8355,-159.5001 505.8355,-163 515.8355,-166.5001 515.8355,-159.5001"/>
</g>
<!-- CommonModule -->
<g id="node4" class="node">
<title>CommonModule</title>
<polygon fill="#8dd3c7" stroke="#000000" points="506.6681,-122 503.6681,-126 482.6681,-126 479.6681,-122 395.3319,-122 395.3319,-86 506.6681,-86 506.6681,-122"/>
<text text-anchor="middle" x="451" y="-99.8" font-family="Times,serif" font-size="14.00" fill="#000000">CommonModule</text>
</g>
<!-- CommonModule&#45;&gt;UserInfoModule -->
<g id="edge3" class="edge">
<title>CommonModule&#45;&gt;UserInfoModule</title>
<path fill="none" stroke="#000000" d="M451,-122.1061C451,-122.1061 451,-140.991 451,-140.991"/>
<polygon fill="#000000" stroke="#000000" points="447.5001,-140.9909 451,-150.991 454.5001,-140.991 447.5001,-140.9909"/>
</g>
<!-- RouterModule.forChild(args) -->
<g id="node5" class="node">
<title>RouterModule.forChild(args)</title>
<polygon fill="#8dd3c7" stroke="#000000" points="377.7323,-122 374.7323,-126 353.7323,-126 350.7323,-122 196.2677,-122 196.2677,-86 377.7323,-86 377.7323,-122"/>
<text text-anchor="middle" x="287" y="-99.8" font-family="Times,serif" font-size="14.00" fill="#000000">RouterModule.forChild(args)</text>
</g>
<!-- RouterModule.forChild(args)&#45;&gt;UserInfoModule -->
<g id="edge4" class="edge">
<title>RouterModule.forChild(args)&#45;&gt;UserInfoModule</title>
<path fill="none" stroke="#000000" d="M287,-122.0225C287,-139.3734 287,-163 287,-163 287,-163 385.9341,-163 385.9341,-163"/>
<polygon fill="#000000" stroke="#000000" points="385.9342,-166.5001 395.9341,-163 385.9341,-159.5001 385.9342,-166.5001"/>
</g>
<!-- UserInfoService -->
<g id="node7" class="node">
<title>UserInfoService</title>
<ellipse fill="#fdb462" stroke="#000000" cx="98" cy="-104" rx="74.1143" ry="18"/>
<text text-anchor="middle" x="98" y="-99.8" font-family="Times,serif" font-size="14.00" fill="#000000">UserInfoService</text>
</g>
<!-- UserInfoService&#45;&gt;UserInfoModule -->
<g id="edge6" class="edge">
<title>UserInfoService&#45;&gt;UserInfoModule</title>
<path fill="none" stroke="#000000" d="M98,-122.2843C98,-143.3211 98,-175 98,-175 98,-175 386.2311,-175 386.2311,-175"/>
<polygon fill="#000000" stroke="#000000" points="386.2311,-178.5001 396.2311,-175 386.231,-171.5001 386.2311,-178.5001"/>
</g>
</g>
</svg>
