<?xml version="1.0" encoding="UTF-8" standalone="no"?>
<!DOCTYPE svg PUBLIC "-//W3C//DTD SVG 1.1//EN"
 "http://www.w3.org/Graphics/SVG/1.1/DTD/svg11.dtd">
<!-- Generated by graphviz version 2.40.1 (20161225.0304)
 -->
<!-- Title: dependencies Pages: 1 -->
<svg width="879pt" height="211pt"
 viewBox="0.00 0.00 879.00 211.00" xmlns="http://www.w3.org/2000/svg" xmlns:xlink="http://www.w3.org/1999/xlink">
<g id="graph0" class="graph" transform="scale(1 1) rotate(0) translate(4 207)">
<title>dependencies</title>
<polygon fill="#ffffff" stroke="transparent" points="-4,4 -4,-207 875,-207 875,4 -4,4"/>
<text text-anchor="start" x="414.5091" y="-42.4" font-family="sans-serif" font-weight="bold" font-size="14.00" fill="#000000">Legend</text>
<polygon fill="#ffffb3" stroke="transparent" points="201.5,-10 201.5,-30 221.5,-30 221.5,-10 201.5,-10"/>
<text text-anchor="start" x="225.129" y="-15.4" font-family="sans-serif" font-size="14.00" fill="#000000"> &#160;Declarations</text>
<polygon fill="#8dd3c7" stroke="transparent" points="314.5,-10 314.5,-30 334.5,-30 334.5,-10 314.5,-10"/>
<text text-anchor="start" x="338.2251" y="-15.4" font-family="sans-serif" font-size="14.00" fill="#000000"> &#160;Module</text>
<polygon fill="#80b1d3" stroke="transparent" points="400.5,-10 400.5,-30 420.5,-30 420.5,-10 400.5,-10"/>
<text text-anchor="start" x="424.2812" y="-15.4" font-family="sans-serif" font-size="14.00" fill="#000000"> &#160;Bootstrap</text>
<polygon fill="#fdb462" stroke="transparent" points="497.5,-10 497.5,-30 517.5,-30 517.5,-10 497.5,-10"/>
<text text-anchor="start" x="521.1732" y="-15.4" font-family="sans-serif" font-size="14.00" fill="#000000"> &#160;Providers</text>
<polygon fill="#fb8072" stroke="transparent" points="593.5,-10 593.5,-30 613.5,-30 613.5,-10 593.5,-10"/>
<text text-anchor="start" x="617.2258" y="-15.4" font-family="sans-serif" font-size="14.00" fill="#000000"> &#160;Exports</text>
<g id="clust1" class="cluster">
<title>cluster_ChatModule</title>
<polygon fill="none" stroke="#000000" stroke-dasharray="1,5" points="8,-70 8,-195 863,-195 863,-70 8,-70"/>
</g>
<g id="clust2" class="cluster">
<title>cluster_ChatModule_declarations</title>
<polygon fill="none" stroke="#000000" points="731,-78 731,-130 855,-130 855,-78 731,-78"/>
</g>
<g id="clust4" class="cluster">
<title>cluster_ChatModule_imports</title>
<polygon fill="none" stroke="#000000" points="156,-78 156,-130 723,-130 723,-78 156,-78"/>
</g>
<g id="clust7" class="cluster">
<title>cluster_ChatModule_providers</title>
<polygon fill="none" stroke="#000000" points="16,-78 16,-130 148,-130 148,-78 16,-78"/>
</g>
<!-- ChatComponent -->
<g id="node1" class="node">
<title>ChatComponent</title>
<polygon fill="#ffffb3" stroke="#000000" points="846.7744,-122 739.2256,-122 739.2256,-86 846.7744,-86 846.7744,-122"/>
<text text-anchor="middle" x="793" y="-99.8" font-family="Times,serif" font-size="14.00" fill="#000000">ChatComponent</text>
</g>
<!-- ChatModule -->
<g id="node2" class="node">
<title>ChatModule</title>
<polygon fill="#8dd3c7" stroke="#000000" points="524.9916,-187 521.9916,-191 500.9916,-191 497.9916,-187 439.0084,-187 439.0084,-151 524.9916,-151 524.9916,-187"/>
<text text-anchor="middle" x="482" y="-164.8" font-family="Times,serif" font-size="14.00" fill="#000000">ChatModule</text>
</g>
<!-- ChatComponent&#45;&gt;ChatModule -->
<g id="edge1" class="edge">
<title>ChatComponent&#45;&gt;ChatModule</title>
<path fill="none" stroke="#000000" d="M793,-122.2843C793,-143.3211 793,-175 793,-175 793,-175 535.2432,-175 535.2432,-175"/>
<polygon fill="#000000" stroke="#000000" points="535.2433,-171.5001 525.2432,-175 535.2432,-178.5001 535.2433,-171.5001"/>
</g>
<!-- FormsModule -->
<g id="node3" class="node">
<title>FormsModule</title>
<polygon fill="#8dd3c7" stroke="#000000" points="714.8288,-122 711.8288,-126 690.8288,-126 687.8288,-122 619.1712,-122 619.1712,-86 714.8288,-86 714.8288,-122"/>
<text text-anchor="middle" x="667" y="-99.8" font-family="Times,serif" font-size="14.00" fill="#000000">FormsModule</text>
</g>
<!-- FormsModule&#45;&gt;ChatModule -->
<g id="edge2" class="edge">
<title>FormsModule&#45;&gt;ChatModule</title>
<path fill="none" stroke="#000000" d="M667,-122.0225C667,-139.3734 667,-163 667,-163 667,-163 535.3743,-163 535.3743,-163"/>
<polygon fill="#000000" stroke="#000000" points="535.3743,-159.5001 525.3743,-163 535.3742,-166.5001 535.3743,-159.5001"/>
</g>
<!-- CommonModule -->
<g id="node4" class="node">
<title>CommonModule</title>
<polygon fill="#8dd3c7" stroke="#000000" points="601.6681,-122 598.6681,-126 577.6681,-126 574.6681,-122 490.3319,-122 490.3319,-86 601.6681,-86 601.6681,-122"/>
<text text-anchor="middle" x="546" y="-99.8" font-family="Times,serif" font-size="14.00" fill="#000000">CommonModule</text>
</g>
<!-- CommonModule&#45;&gt;ChatModule -->
<g id="edge3" class="edge">
<title>CommonModule&#45;&gt;ChatModule</title>
<path fill="none" stroke="#000000" d="M507.581,-122.1061C507.581,-122.1061 507.581,-140.991 507.581,-140.991"/>
<polygon fill="#000000" stroke="#000000" points="504.0811,-140.9909 507.581,-150.991 511.0811,-140.991 504.0811,-140.9909"/>
</g>
<!-- UserInfoModule -->
<g id="node5" class="node">
<title>UserInfoModule</title>
<polygon fill="#8dd3c7" stroke="#000000" points="472.7978,-122 469.7978,-126 448.7978,-126 445.7978,-122 363.2022,-122 363.2022,-86 472.7978,-86 472.7978,-122"/>
<text text-anchor="middle" x="418" y="-99.8" font-family="Times,serif" font-size="14.00" fill="#000000">UserInfoModule</text>
</g>
<!-- UserInfoModule&#45;&gt;ChatModule -->
<g id="edge4" class="edge">
<title>UserInfoModule&#45;&gt;ChatModule</title>
<path fill="none" stroke="#000000" d="M455.8265,-122.1061C455.8265,-122.1061 455.8265,-140.991 455.8265,-140.991"/>
<polygon fill="#000000" stroke="#000000" points="452.3265,-140.9909 455.8265,-150.991 459.3265,-140.991 452.3265,-140.9909"/>
</g>
<!-- RouterModule.forChild(args) -->
<g id="node6" class="node">
<title>RouterModule.forChild(args)</title>
<polygon fill="#8dd3c7" stroke="#000000" points="345.7323,-122 342.7323,-126 321.7323,-126 318.7323,-122 164.2677,-122 164.2677,-86 345.7323,-86 345.7323,-122"/>
<text text-anchor="middle" x="255" y="-99.8" font-family="Times,serif" font-size="14.00" fill="#000000">RouterModule.forChild(args)</text>
</g>
<!-- RouterModule.forChild(args)&#45;&gt;ChatModule -->
<g id="edge5" class="edge">
<title>RouterModule.forChild(args)&#45;&gt;ChatModule</title>
<path fill="none" stroke="#000000" d="M255,-122.0225C255,-139.3734 255,-163 255,-163 255,-163 428.7687,-163 428.7687,-163"/>
<polygon fill="#000000" stroke="#000000" points="428.7688,-166.5001 438.7687,-163 428.7687,-159.5001 428.7688,-166.5001"/>
</g>
<!-- ChatService -->
<g id="node7" class="node">
<title>ChatService</title>
<ellipse fill="#fdb462" stroke="#000000" cx="82" cy="-104" rx="58.4628" ry="18"/>
<text text-anchor="middle" x="82" y="-99.8" font-family="Times,serif" font-size="14.00" fill="#000000">ChatService</text>
</g>
<!-- ChatService&#45;&gt;ChatModule -->
<g id="edge6" class="edge">
<title>ChatService&#45;&gt;ChatModule</title>
<path fill="none" stroke="#000000" d="M82,-122.2843C82,-143.3211 82,-175 82,-175 82,-175 428.8129,-175 428.8129,-175"/>
<polygon fill="#000000" stroke="#000000" points="428.813,-178.5001 438.8129,-175 428.8129,-171.5001 428.813,-178.5001"/>
</g>
</g>
</svg>
