<?xml version="1.0" encoding="UTF-8" standalone="no"?>
<!DOCTYPE svg PUBLIC "-//W3C//DTD SVG 1.1//EN"
 "http://www.w3.org/Graphics/SVG/1.1/DTD/svg11.dtd">
<!-- Generated by graphviz version 2.40.1 (20161225.0304)
 -->
<!-- Title: dependencies Pages: 1 -->
<svg width="772pt" height="211pt"
 viewBox="0.00 0.00 772.00 211.00" xmlns="http://www.w3.org/2000/svg" xmlns:xlink="http://www.w3.org/1999/xlink">
<g id="graph0" class="graph" transform="scale(1 1) rotate(0) translate(4 207)">
<title>dependencies</title>
<polygon fill="#ffffff" stroke="transparent" points="-4,4 -4,-207 768,-207 768,4 -4,4"/>
<text text-anchor="start" x="361.0091" y="-42.4" font-family="sans-serif" font-weight="bold" font-size="14.00" fill="#000000">Legend</text>
<polygon fill="#ffffb3" stroke="transparent" points="148,-10 148,-30 168,-30 168,-10 148,-10"/>
<text text-anchor="start" x="171.629" y="-15.4" font-family="sans-serif" font-size="14.00" fill="#000000"> &#160;Declarations</text>
<polygon fill="#8dd3c7" stroke="transparent" points="261,-10 261,-30 281,-30 281,-10 261,-10"/>
<text text-anchor="start" x="284.7251" y="-15.4" font-family="sans-serif" font-size="14.00" fill="#000000"> &#160;Module</text>
<polygon fill="#80b1d3" stroke="transparent" points="347,-10 347,-30 367,-30 367,-10 347,-10"/>
<text text-anchor="start" x="370.7812" y="-15.4" font-family="sans-serif" font-size="14.00" fill="#000000"> &#160;Bootstrap</text>
<polygon fill="#fdb462" stroke="transparent" points="444,-10 444,-30 464,-30 464,-10 444,-10"/>
<text text-anchor="start" x="467.6732" y="-15.4" font-family="sans-serif" font-size="14.00" fill="#000000"> &#160;Providers</text>
<polygon fill="#fb8072" stroke="transparent" points="540,-10 540,-30 560,-30 560,-10 540,-10"/>
<text text-anchor="start" x="563.7258" y="-15.4" font-family="sans-serif" font-size="14.00" fill="#000000"> &#160;Exports</text>
<g id="clust1" class="cluster">
<title>cluster_HomeModule</title>
<polygon fill="none" stroke="#000000" stroke-dasharray="1,5" points="8,-70 8,-195 756,-195 756,-70 8,-70"/>
</g>
<g id="clust2" class="cluster">
<title>cluster_HomeModule_declarations</title>
<polygon fill="none" stroke="#000000" points="616,-78 616,-130 748,-130 748,-78 616,-78"/>
</g>
<g id="clust4" class="cluster">
<title>cluster_HomeModule_imports</title>
<polygon fill="none" stroke="#000000" points="168,-78 168,-130 608,-130 608,-78 168,-78"/>
</g>
<g id="clust7" class="cluster">
<title>cluster_HomeModule_providers</title>
<polygon fill="none" stroke="#000000" points="16,-78 16,-130 160,-130 160,-78 16,-78"/>
</g>
<!-- HomeComponent -->
<g id="node1" class="node">
<title>HomeComponent</title>
<polygon fill="#ffffb3" stroke="#000000" points="739.5451,-122 624.4549,-122 624.4549,-86 739.5451,-86 739.5451,-122"/>
<text text-anchor="middle" x="682" y="-99.8" font-family="Times,serif" font-size="14.00" fill="#000000">HomeComponent</text>
</g>
<!-- HomeModule -->
<g id="node2" class="node">
<title>HomeModule</title>
<polygon fill="#8dd3c7" stroke="#000000" points="477.7619,-187 474.7619,-191 453.7619,-191 450.7619,-187 384.2381,-187 384.2381,-151 477.7619,-151 477.7619,-187"/>
<text text-anchor="middle" x="431" y="-164.8" font-family="Times,serif" font-size="14.00" fill="#000000">HomeModule</text>
</g>
<!-- HomeComponent&#45;&gt;HomeModule -->
<g id="edge1" class="edge">
<title>HomeComponent&#45;&gt;HomeModule</title>
<path fill="none" stroke="#000000" d="M682,-122.2843C682,-143.3211 682,-175 682,-175 682,-175 487.9167,-175 487.9167,-175"/>
<polygon fill="#000000" stroke="#000000" points="487.9168,-171.5001 477.9167,-175 487.9167,-178.5001 487.9168,-171.5001"/>
</g>
<!-- FormsModule -->
<g id="node3" class="node">
<title>FormsModule</title>
<polygon fill="#8dd3c7" stroke="#000000" points="599.8288,-122 596.8288,-126 575.8288,-126 572.8288,-122 504.1712,-122 504.1712,-86 599.8288,-86 599.8288,-122"/>
<text text-anchor="middle" x="552" y="-99.8" font-family="Times,serif" font-size="14.00" fill="#000000">FormsModule</text>
</g>
<!-- FormsModule&#45;&gt;HomeModule -->
<g id="edge2" class="edge">
<title>FormsModule&#45;&gt;HomeModule</title>
<path fill="none" stroke="#000000" d="M552,-122.0225C552,-139.3734 552,-163 552,-163 552,-163 487.7818,-163 487.7818,-163"/>
<polygon fill="#000000" stroke="#000000" points="487.7818,-159.5001 477.7818,-163 487.7817,-166.5001 487.7818,-159.5001"/>
</g>
<!-- CommonModule -->
<g id="node4" class="node">
<title>CommonModule</title>
<polygon fill="#8dd3c7" stroke="#000000" points="486.6681,-122 483.6681,-126 462.6681,-126 459.6681,-122 375.3319,-122 375.3319,-86 486.6681,-86 486.6681,-122"/>
<text text-anchor="middle" x="431" y="-99.8" font-family="Times,serif" font-size="14.00" fill="#000000">CommonModule</text>
</g>
<!-- CommonModule&#45;&gt;HomeModule -->
<g id="edge3" class="edge">
<title>CommonModule&#45;&gt;HomeModule</title>
<path fill="none" stroke="#000000" d="M431,-122.1061C431,-122.1061 431,-140.991 431,-140.991"/>
<polygon fill="#000000" stroke="#000000" points="427.5001,-140.9909 431,-150.991 434.5001,-140.991 427.5001,-140.9909"/>
</g>
<!-- RouterModule.forChild(args) -->
<g id="node5" class="node">
<title>RouterModule.forChild(args)</title>
<polygon fill="#8dd3c7" stroke="#000000" points="357.7323,-122 354.7323,-126 333.7323,-126 330.7323,-122 176.2677,-122 176.2677,-86 357.7323,-86 357.7323,-122"/>
<text text-anchor="middle" x="267" y="-99.8" font-family="Times,serif" font-size="14.00" fill="#000000">RouterModule.forChild(args)</text>
</g>
<!-- RouterModule.forChild(args)&#45;&gt;HomeModule -->
<g id="edge4" class="edge">
<title>RouterModule.forChild(args)&#45;&gt;HomeModule</title>
<path fill="none" stroke="#000000" d="M267,-122.0225C267,-139.3734 267,-163 267,-163 267,-163 374.0042,-163 374.0042,-163"/>
<polygon fill="#000000" stroke="#000000" points="374.0042,-166.5001 384.0042,-163 374.0041,-159.5001 374.0042,-166.5001"/>
</g>
<!-- HomeService -->
<g id="node6" class="node">
<title>HomeService</title>
<ellipse fill="#fdb462" stroke="#000000" cx="88" cy="-104" rx="63.6813" ry="18"/>
<text text-anchor="middle" x="88" y="-99.8" font-family="Times,serif" font-size="14.00" fill="#000000">HomeService</text>
</g>
<!-- HomeService&#45;&gt;HomeModule -->
<g id="edge5" class="edge">
<title>HomeService&#45;&gt;HomeModule</title>
<path fill="none" stroke="#000000" d="M88,-122.2843C88,-143.3211 88,-175 88,-175 88,-175 374.0265,-175 374.0265,-175"/>
<polygon fill="#000000" stroke="#000000" points="374.0265,-178.5001 384.0265,-175 374.0265,-171.5001 374.0265,-178.5001"/>
</g>
</g>
</svg>
