<?xml version="1.0" encoding="UTF-8" standalone="no"?>
<!DOCTYPE svg PUBLIC "-//W3C//DTD SVG 1.1//EN"
 "http://www.w3.org/Graphics/SVG/1.1/DTD/svg11.dtd">
<!-- Generated by graphviz version 2.40.1 (20161225.0304)
 -->
<!-- Title: dependencies Pages: 1 -->
<svg width="1303pt" height="284pt"
 viewBox="0.00 0.00 1303.00 284.00" xmlns="http://www.w3.org/2000/svg" xmlns:xlink="http://www.w3.org/1999/xlink">
<g id="graph0" class="graph" transform="scale(1 1) rotate(0) translate(4 280)">
<title>dependencies</title>
<polygon fill="#ffffff" stroke="transparent" points="-4,4 -4,-280 1299,-280 1299,4 -4,4"/>
<text text-anchor="start" x="626.5091" y="-42.4" font-family="sans-serif" font-weight="bold" font-size="14.00" fill="#000000">Legend</text>
<polygon fill="#ffffb3" stroke="transparent" points="413.5,-10 413.5,-30 433.5,-30 433.5,-10 413.5,-10"/>
<text text-anchor="start" x="437.129" y="-15.4" font-family="sans-serif" font-size="14.00" fill="#000000"> &#160;Declarations</text>
<polygon fill="#8dd3c7" stroke="transparent" points="526.5,-10 526.5,-30 546.5,-30 546.5,-10 526.5,-10"/>
<text text-anchor="start" x="550.2251" y="-15.4" font-family="sans-serif" font-size="14.00" fill="#000000"> &#160;Module</text>
<polygon fill="#80b1d3" stroke="transparent" points="612.5,-10 612.5,-30 632.5,-30 632.5,-10 612.5,-10"/>
<text text-anchor="start" x="636.2812" y="-15.4" font-family="sans-serif" font-size="14.00" fill="#000000"> &#160;Bootstrap</text>
<polygon fill="#fdb462" stroke="transparent" points="709.5,-10 709.5,-30 729.5,-30 729.5,-10 709.5,-10"/>
<text text-anchor="start" x="733.1732" y="-15.4" font-family="sans-serif" font-size="14.00" fill="#000000"> &#160;Providers</text>
<polygon fill="#fb8072" stroke="transparent" points="805.5,-10 805.5,-30 825.5,-30 825.5,-10 805.5,-10"/>
<text text-anchor="start" x="829.2258" y="-15.4" font-family="sans-serif" font-size="14.00" fill="#000000"> &#160;Exports</text>
<g id="clust1" class="cluster">
<title>cluster_AppModule</title>
<polygon fill="none" stroke="#000000" stroke-dasharray="1,5" points="8,-70 8,-268 1287,-268 1287,-70 8,-70"/>
</g>
<g id="clust2" class="cluster">
<title>cluster_AppModule_declarations</title>
<polygon fill="none" stroke="#000000" points="1141,-78 1141,-130 1279,-130 1279,-78 1141,-78"/>
</g>
<g id="clust4" class="cluster">
<title>cluster_AppModule_imports</title>
<polygon fill="none" stroke="#000000" points="335,-78 335,-130 1133,-130 1133,-78 335,-78"/>
</g>
<g id="clust6" class="cluster">
<title>cluster_AppModule_bootstrap</title>
<polygon fill="none" stroke="#000000" points="638,-208 638,-260 780,-260 780,-208 638,-208"/>
</g>
<g id="clust7" class="cluster">
<title>cluster_AppModule_providers</title>
<polygon fill="none" stroke="#000000" points="16,-78 16,-130 327,-130 327,-78 16,-78"/>
</g>
<!-- HeaderComponent -->
<g id="node1" class="node">
<title>HeaderComponent</title>
<polygon fill="#ffffb3" stroke="#000000" points="1270.7437,-122 1149.2563,-122 1149.2563,-86 1270.7437,-86 1270.7437,-122"/>
<text text-anchor="middle" x="1210" y="-99.8" font-family="Times,serif" font-size="14.00" fill="#000000">HeaderComponent</text>
</g>
<!-- AppModule -->
<g id="node2" class="node">
<title>AppModule</title>
<polygon fill="#8dd3c7" stroke="#000000" points="750.6571,-187 747.6571,-191 726.6571,-191 723.6571,-187 667.3429,-187 667.3429,-151 750.6571,-151 750.6571,-187"/>
<text text-anchor="middle" x="709" y="-164.8" font-family="Times,serif" font-size="14.00" fill="#000000">AppModule</text>
</g>
<!-- HeaderComponent&#45;&gt;AppModule -->
<g id="edge1" class="edge">
<title>HeaderComponent&#45;&gt;AppModule</title>
<path fill="none" stroke="#000000" d="M1210,-122.0109C1210,-144.4852 1210,-180 1210,-180 1210,-180 760.8533,-180 760.8533,-180"/>
<polygon fill="#000000" stroke="#000000" points="760.8533,-176.5001 750.8533,-180 760.8532,-183.5001 760.8533,-176.5001"/>
</g>
<!-- HeaderComponent  -->
<g id="node9" class="node">
<title>HeaderComponent </title>
<polygon fill="#80b1d3" stroke="#000000" points="771.7436,-252 646.2564,-252 646.2564,-216 771.7436,-216 771.7436,-252"/>
<text text-anchor="middle" x="709" y="-229.8" font-family="Times,serif" font-size="14.00" fill="#000000">HeaderComponent </text>
</g>
<!-- AppModule&#45;&gt;HeaderComponent  -->
<g id="edge8" class="edge">
<title>AppModule&#45;&gt;HeaderComponent </title>
<path fill="none" stroke="#000000" stroke-dasharray="1,5" d="M709,-187.1061C709,-187.1061 709,-205.991 709,-205.991"/>
<polygon fill="#000000" stroke="#000000" points="705.5001,-205.9909 709,-215.991 712.5001,-205.991 705.5001,-205.9909"/>
</g>
<!-- HttpClientModule -->
<g id="node3" class="node">
<title>HttpClientModule</title>
<polygon fill="#8dd3c7" stroke="#000000" points="1125.1611,-122 1122.1611,-126 1101.1611,-126 1098.1611,-122 1006.8389,-122 1006.8389,-86 1125.1611,-86 1125.1611,-122"/>
<text text-anchor="middle" x="1066" y="-99.8" font-family="Times,serif" font-size="14.00" fill="#000000">HttpClientModule</text>
</g>
<!-- HttpClientModule&#45;&gt;AppModule -->
<g id="edge2" class="edge">
<title>HttpClientModule&#45;&gt;AppModule</title>
<path fill="none" stroke="#000000" d="M1066,-122.1289C1066,-142.5724 1066,-173 1066,-173 1066,-173 761.0022,-173 761.0022,-173"/>
<polygon fill="#000000" stroke="#000000" points="761.0023,-169.5001 751.0022,-173 761.0022,-176.5001 761.0023,-169.5001"/>
</g>
<!-- BrowserModule -->
<g id="node4" class="node">
<title>BrowserModule</title>
<polygon fill="#8dd3c7" stroke="#000000" points="988.4734,-122 985.4734,-126 964.4734,-126 961.4734,-122 881.5266,-122 881.5266,-86 988.4734,-86 988.4734,-122"/>
<text text-anchor="middle" x="935" y="-99.8" font-family="Times,serif" font-size="14.00" fill="#000000">BrowserModule</text>
</g>
<!-- BrowserModule&#45;&gt;AppModule -->
<g id="edge3" class="edge">
<title>BrowserModule&#45;&gt;AppModule</title>
<path fill="none" stroke="#000000" d="M935,-122.2667C935,-140.5552 935,-166 935,-166 935,-166 760.7153,-166 760.7153,-166"/>
<polygon fill="#000000" stroke="#000000" points="760.7153,-162.5001 750.7153,-166 760.7152,-169.5001 760.7153,-162.5001"/>
</g>
<!-- HomeModule -->
<g id="node5" class="node">
<title>HomeModule</title>
<polygon fill="#8dd3c7" stroke="#000000" points="863.7619,-122 860.7619,-126 839.7619,-126 836.7619,-122 770.2381,-122 770.2381,-86 863.7619,-86 863.7619,-122"/>
<text text-anchor="middle" x="817" y="-99.8" font-family="Times,serif" font-size="14.00" fill="#000000">HomeModule</text>
</g>
<!-- HomeModule&#45;&gt;AppModule -->
<g id="edge4" class="edge">
<title>HomeModule&#45;&gt;AppModule</title>
<path fill="none" stroke="#000000" d="M817.7513,-122.0091C817.7513,-138.0494 817.7513,-159 817.7513,-159 817.7513,-159 760.7351,-159 760.7351,-159"/>
<polygon fill="#000000" stroke="#000000" points="760.7351,-155.5001 750.7351,-159 760.735,-162.5001 760.7351,-155.5001"/>
</g>
<!-- ChatModule -->
<g id="node6" class="node">
<title>ChatModule</title>
<polygon fill="#8dd3c7" stroke="#000000" points="751.9916,-122 748.9916,-126 727.9916,-126 724.9916,-122 666.0084,-122 666.0084,-86 751.9916,-86 751.9916,-122"/>
<text text-anchor="middle" x="709" y="-99.8" font-family="Times,serif" font-size="14.00" fill="#000000">ChatModule</text>
</g>
<!-- ChatModule&#45;&gt;AppModule -->
<g id="edge5" class="edge">
<title>ChatModule&#45;&gt;AppModule</title>
<path fill="none" stroke="#000000" d="M709,-122.1061C709,-122.1061 709,-140.991 709,-140.991"/>
<polygon fill="#000000" stroke="#000000" points="705.5001,-140.9909 709,-150.991 712.5001,-140.991 705.5001,-140.9909"/>
</g>
<!-- UserInfoModule -->
<g id="node7" class="node">
<title>UserInfoModule</title>
<polygon fill="#8dd3c7" stroke="#000000" points="647.7978,-122 644.7978,-126 623.7978,-126 620.7978,-122 538.2022,-122 538.2022,-86 647.7978,-86 647.7978,-122"/>
<text text-anchor="middle" x="593" y="-99.8" font-family="Times,serif" font-size="14.00" fill="#000000">UserInfoModule</text>
</g>
<!-- UserInfoModule&#45;&gt;AppModule -->
<g id="edge6" class="edge">
<title>UserInfoModule&#45;&gt;AppModule</title>
<path fill="none" stroke="#000000" d="M592.3648,-122.0091C592.3648,-138.0494 592.3648,-159 592.3648,-159 592.3648,-159 657.2215,-159 657.2215,-159"/>
<polygon fill="#000000" stroke="#000000" points="657.2215,-162.5001 667.2215,-159 657.2214,-155.5001 657.2215,-162.5001"/>
</g>
<!-- RouterModule.forRoot(args) -->
<g id="node8" class="node">
<title>RouterModule.forRoot(args)</title>
<polygon fill="#8dd3c7" stroke="#000000" points="520.8419,-122 517.8419,-126 496.8419,-126 493.8419,-122 343.1581,-122 343.1581,-86 520.8419,-86 520.8419,-122"/>
<text text-anchor="middle" x="432" y="-99.8" font-family="Times,serif" font-size="14.00" fill="#000000">RouterModule.forRoot(args)</text>
</g>
<!-- RouterModule.forRoot(args)&#45;&gt;AppModule -->
<g id="edge7" class="edge">
<title>RouterModule.forRoot(args)&#45;&gt;AppModule</title>
<path fill="none" stroke="#000000" d="M432,-122.2667C432,-140.5552 432,-166 432,-166 432,-166 657.2304,-166 657.2304,-166"/>
<polygon fill="#000000" stroke="#000000" points="657.2304,-169.5001 667.2304,-166 657.2304,-162.5001 657.2304,-169.5001"/>
</g>
<!-- HeaderService -->
<g id="node10" class="node">
<title>HeaderService</title>
<ellipse fill="#fdb462" stroke="#000000" cx="251" cy="-104" rx="67.7336" ry="18"/>
<text text-anchor="middle" x="251" y="-99.8" font-family="Times,serif" font-size="14.00" fill="#000000">HeaderService</text>
</g>
<!-- HeaderService&#45;&gt;AppModule -->
<g id="edge9" class="edge">
<title>HeaderService&#45;&gt;AppModule</title>
<path fill="none" stroke="#000000" d="M251,-122.1289C251,-142.5724 251,-173 251,-173 251,-173 657.1414,-173 657.1414,-173"/>
<polygon fill="#000000" stroke="#000000" points="657.1414,-176.5001 667.1414,-173 657.1414,-169.5001 657.1414,-176.5001"/>
</g>
<!-- ChatbotService -->
<g id="node11" class="node">
<title>ChatbotService</title>
<ellipse fill="#fdb462" stroke="#000000" cx="95" cy="-104" rx="70.6432" ry="18"/>
<text text-anchor="middle" x="95" y="-99.8" font-family="Times,serif" font-size="14.00" fill="#000000">ChatbotService</text>
</g>
<!-- ChatbotService&#45;&gt;AppModule -->
<g id="edge10" class="edge">
<title>ChatbotService&#45;&gt;AppModule</title>
<path fill="none" stroke="#000000" d="M95,-122.0109C95,-144.4852 95,-180 95,-180 95,-180 657.28,-180 657.28,-180"/>
<polygon fill="#000000" stroke="#000000" points="657.28,-183.5001 667.28,-180 657.28,-176.5001 657.28,-183.5001"/>
</g>
</g>
</svg>
