<?xml version="1.0" encoding="UTF-8" standalone="no"?>
<!DOCTYPE svg PUBLIC "-//W3C//DTD SVG 1.1//EN"
 "http://www.w3.org/Graphics/SVG/1.1/DTD/svg11.dtd">
<!-- Generated by graphviz version 2.40.1 (20161225.0304)
 -->
<!-- Title: dependencies Pages: 1 -->
<svg width="1562pt" height="425pt"
 viewBox="0.00 0.00 1562.00 425.00" xmlns="http://www.w3.org/2000/svg" xmlns:xlink="http://www.w3.org/1999/xlink">
<g id="graph0" class="graph" transform="scale(1 1) rotate(0) translate(4 421)">
<title>dependencies</title>
<polygon fill="#ffffff" stroke="transparent" points="-4,4 -4,-421 1558,-421 1558,4 -4,4"/>
<text text-anchor="start" x="756.0091" y="-42.4" font-family="sans-serif" font-weight="bold" font-size="14.00" fill="#000000">Legend</text>
<polygon fill="#ffffb3" stroke="transparent" points="543,-10 543,-30 563,-30 563,-10 543,-10"/>
<text text-anchor="start" x="566.629" y="-15.4" font-family="sans-serif" font-size="14.00" fill="#000000"> &#160;Declarations</text>
<polygon fill="#8dd3c7" stroke="transparent" points="656,-10 656,-30 676,-30 676,-10 656,-10"/>
<text text-anchor="start" x="679.7251" y="-15.4" font-family="sans-serif" font-size="14.00" fill="#000000"> &#160;Module</text>
<polygon fill="#80b1d3" stroke="transparent" points="742,-10 742,-30 762,-30 762,-10 742,-10"/>
<text text-anchor="start" x="765.7812" y="-15.4" font-family="sans-serif" font-size="14.00" fill="#000000"> &#160;Bootstrap</text>
<polygon fill="#fdb462" stroke="transparent" points="839,-10 839,-30 859,-30 859,-10 839,-10"/>
<text text-anchor="start" x="862.6732" y="-15.4" font-family="sans-serif" font-size="14.00" fill="#000000"> &#160;Providers</text>
<polygon fill="#fb8072" stroke="transparent" points="935,-10 935,-30 955,-30 955,-10 935,-10"/>
<text text-anchor="start" x="958.7258" y="-15.4" font-family="sans-serif" font-size="14.00" fill="#000000"> &#160;Exports</text>
<g id="clust1" class="cluster">
<title>cluster_AppModule</title>
<polygon fill="none" stroke="#000000" stroke-dasharray="1,5" points="32,-146 32,-409 1208,-409 1208,-146 32,-146"/>
</g>
<g id="clust2" class="cluster">
<title>cluster_AppModule_declarations</title>
<polygon fill="none" stroke="#000000" points="1062,-219 1062,-271 1200,-271 1200,-219 1062,-219"/>
</g>
<g id="clust4" class="cluster">
<title>cluster_AppModule_imports</title>
<polygon fill="none" stroke="#000000" points="359,-154 359,-271 1054,-271 1054,-154 359,-154"/>
</g>
<g id="clust6" class="cluster">
<title>cluster_AppModule_bootstrap</title>
<polygon fill="none" stroke="#000000" points="682,-349 682,-401 824,-401 824,-349 682,-349"/>
</g>
<g id="clust7" class="cluster">
<title>cluster_AppModule_providers</title>
<polygon fill="none" stroke="#000000" points="40,-219 40,-271 351,-271 351,-219 40,-219"/>
</g>
<g id="clust8" class="cluster">
<title>cluster_ChatModule</title>
<polygon fill="none" stroke="#000000" stroke-dasharray="1,5" points="818,-70 818,-138 1546,-138 1546,-70 818,-70"/>
</g>
<g id="clust9" class="cluster">
<title>cluster_ChatModule_declarations</title>
<polygon fill="none" stroke="#000000" points="826,-78 826,-130 950,-130 950,-78 826,-78"/>
</g>
<g id="clust11" class="cluster">
<title>cluster_ChatModule_imports</title>
<polygon fill="none" stroke="#000000" points="958,-78 958,-130 1398,-130 1398,-78 958,-78"/>
</g>
<g id="clust14" class="cluster">
<title>cluster_ChatModule_providers</title>
<polygon fill="none" stroke="#000000" points="1406,-78 1406,-130 1538,-130 1538,-78 1406,-78"/>
</g>
<g id="clust15" class="cluster">
<title>cluster_HomeModule</title>
<polygon fill="none" stroke="#000000" stroke-dasharray="1,5" points="510,-70 510,-138 810,-138 810,-70 510,-70"/>
</g>
<g id="clust16" class="cluster">
<title>cluster_HomeModule_declarations</title>
<polygon fill="none" stroke="#000000" points="670,-78 670,-130 802,-130 802,-78 670,-78"/>
</g>
<g id="clust21" class="cluster">
<title>cluster_HomeModule_providers</title>
<polygon fill="none" stroke="#000000" points="518,-78 518,-130 662,-130 662,-78 518,-78"/>
</g>
<g id="clust22" class="cluster">
<title>cluster_UserInfoModule</title>
<polygon fill="none" stroke="#000000" stroke-dasharray="1,5" points="8,-70 8,-138 502,-138 502,-70 8,-70"/>
</g>
<g id="clust23" class="cluster">
<title>cluster_UserInfoModule_declarations</title>
<polygon fill="none" stroke="#000000" points="346,-78 346,-130 494,-130 494,-78 346,-78"/>
</g>
<g id="clust26" class="cluster">
<title>cluster_UserInfoModule_exports</title>
<polygon fill="none" stroke="#000000" points="188,-78 188,-130 338,-130 338,-78 188,-78"/>
</g>
<g id="clust28" class="cluster">
<title>cluster_UserInfoModule_providers</title>
<polygon fill="none" stroke="#000000" points="16,-78 16,-130 180,-130 180,-78 16,-78"/>
</g>
<!-- HeaderComponent -->
<g id="node1" class="node">
<title>HeaderComponent</title>
<polygon fill="#ffffb3" stroke="#000000" points="1191.7437,-263 1070.2563,-263 1070.2563,-227 1191.7437,-227 1191.7437,-263"/>
<text text-anchor="middle" x="1131" y="-240.8" font-family="Times,serif" font-size="14.00" fill="#000000">HeaderComponent</text>
</g>
<!-- AppModule -->
<g id="node2" class="node">
<title>AppModule</title>
<polygon fill="#8dd3c7" stroke="#000000" points="794.6571,-328 791.6571,-332 770.6571,-332 767.6571,-328 711.3429,-328 711.3429,-292 794.6571,-292 794.6571,-328"/>
<text text-anchor="middle" x="753" y="-305.8" font-family="Times,serif" font-size="14.00" fill="#000000">AppModule</text>
</g>
<!-- HeaderComponent&#45;&gt;AppModule -->
<g id="edge1" class="edge">
<title>HeaderComponent&#45;&gt;AppModule</title>
<path fill="none" stroke="#000000" d="M1131,-263.2921C1131,-285.2057 1131,-319 1131,-319 1131,-319 804.8969,-319 804.8969,-319"/>
<polygon fill="#000000" stroke="#000000" points="804.8969,-315.5001 794.8969,-319 804.8968,-322.5001 804.8969,-315.5001"/>
</g>
<!-- HeaderComponent  -->
<g id="node9" class="node">
<title>HeaderComponent </title>
<polygon fill="#80b1d3" stroke="#000000" points="815.7436,-393 690.2564,-393 690.2564,-357 815.7436,-357 815.7436,-393"/>
<text text-anchor="middle" x="753" y="-370.8" font-family="Times,serif" font-size="14.00" fill="#000000">HeaderComponent </text>
</g>
<!-- AppModule&#45;&gt;HeaderComponent  -->
<g id="edge8" class="edge">
<title>AppModule&#45;&gt;HeaderComponent </title>
<path fill="none" stroke="#000000" stroke-dasharray="1,5" d="M753,-328.1061C753,-328.1061 753,-346.991 753,-346.991"/>
<polygon fill="#000000" stroke="#000000" points="749.5001,-346.9909 753,-356.991 756.5001,-346.991 749.5001,-346.9909"/>
</g>
<!-- HttpClientModule -->
<g id="node3" class="node">
<title>HttpClientModule</title>
<polygon fill="#8dd3c7" stroke="#000000" points="681.1611,-198 678.1611,-202 657.1611,-202 654.1611,-198 562.8389,-198 562.8389,-162 681.1611,-162 681.1611,-198"/>
<text text-anchor="middle" x="622" y="-175.8" font-family="Times,serif" font-size="14.00" fill="#000000">HttpClientModule</text>
</g>
<!-- HttpClientModule&#45;&gt;AppModule -->
<g id="edge2" class="edge">
<title>HttpClientModule&#45;&gt;AppModule</title>
<path fill="none" stroke="#000000" d="M622,-198.1149C622,-231.8699 622,-301 622,-301 622,-301 701.1906,-301 701.1906,-301"/>
<polygon fill="#000000" stroke="#000000" points="701.1906,-304.5001 711.1906,-301 701.1906,-297.5001 701.1906,-304.5001"/>
</g>
<!-- BrowserModule -->
<g id="node4" class="node">
<title>BrowserModule</title>
<polygon fill="#8dd3c7" stroke="#000000" points="806.4734,-198 803.4734,-202 782.4734,-202 779.4734,-198 699.5266,-198 699.5266,-162 806.4734,-162 806.4734,-198"/>
<text text-anchor="middle" x="753" y="-175.8" font-family="Times,serif" font-size="14.00" fill="#000000">BrowserModule</text>
</g>
<!-- BrowserModule&#45;&gt;AppModule -->
<g id="edge3" class="edge">
<title>BrowserModule&#45;&gt;AppModule</title>
<path fill="none" stroke="#000000" d="M753,-198.0759C753,-198.0759 753,-281.6585 753,-281.6585"/>
<polygon fill="#000000" stroke="#000000" points="749.5001,-281.6585 753,-291.6585 756.5001,-281.6585 749.5001,-281.6585"/>
</g>
<!-- HomeModule -->
<g id="node5" class="node">
<title>HomeModule</title>
<polygon fill="#8dd3c7" stroke="#000000" points="1045.7619,-198 1042.7619,-202 1021.7619,-202 1018.7619,-198 952.2381,-198 952.2381,-162 1045.7619,-162 1045.7619,-198"/>
<text text-anchor="middle" x="999" y="-175.8" font-family="Times,serif" font-size="14.00" fill="#000000">HomeModule</text>
</g>
<!-- HomeModule&#45;&gt;AppModule -->
<g id="edge4" class="edge">
<title>HomeModule&#45;&gt;AppModule</title>
<path fill="none" stroke="#000000" d="M956.0617,-198.0759C956.0617,-233.7964 956.0617,-310 956.0617,-310 956.0617,-310 805.0745,-310 805.0745,-310"/>
<polygon fill="#000000" stroke="#000000" points="805.0746,-306.5001 795.0745,-310 805.0745,-313.5001 805.0746,-306.5001"/>
</g>
<!-- ChatModule -->
<g id="node6" class="node">
<title>ChatModule</title>
<polygon fill="#8dd3c7" stroke="#000000" points="1045.9916,-263 1042.9916,-267 1021.9916,-267 1018.9916,-263 960.0084,-263 960.0084,-227 1045.9916,-227 1045.9916,-263"/>
<text text-anchor="middle" x="1003" y="-240.8" font-family="Times,serif" font-size="14.00" fill="#000000">ChatModule</text>
</g>
<!-- ChatModule&#45;&gt;AppModule -->
<g id="edge5" class="edge">
<title>ChatModule&#45;&gt;AppModule</title>
<path fill="none" stroke="#000000" d="M959.9107,-256C893.5501,-256 773.9141,-256 773.9141,-256 773.9141,-256 773.9141,-281.7181 773.9141,-281.7181"/>
<polygon fill="#000000" stroke="#000000" points="770.4142,-281.718 773.9141,-291.7181 777.4142,-281.7181 770.4142,-281.718"/>
</g>
<!-- UserInfoModule -->
<g id="node7" class="node">
<title>UserInfoModule</title>
<polygon fill="#8dd3c7" stroke="#000000" points="933.7978,-198 930.7978,-202 909.7978,-202 906.7978,-198 824.2022,-198 824.2022,-162 933.7978,-162 933.7978,-198"/>
<text text-anchor="middle" x="879" y="-175.8" font-family="Times,serif" font-size="14.00" fill="#000000">UserInfoModule</text>
</g>
<!-- UserInfoModule&#45;&gt;AppModule -->
<g id="edge6" class="edge">
<title>UserInfoModule&#45;&gt;AppModule</title>
<path fill="none" stroke="#000000" d="M860.7838,-198.1149C860.7838,-231.8699 860.7838,-301 860.7838,-301 860.7838,-301 804.672,-301 804.672,-301"/>
<polygon fill="#000000" stroke="#000000" points="804.6721,-297.5001 794.672,-301 804.672,-304.5001 804.6721,-297.5001"/>
</g>
<!-- UserInfoModule&#45;&gt;ChatModule -->
<g id="edge14" class="edge">
<title>UserInfoModule&#45;&gt;ChatModule</title>
<path fill="none" stroke="#000000" d="M897.2162,-198.1289C897.2162,-218.5724 897.2162,-249 897.2162,-249 897.2162,-249 949.9737,-249 949.9737,-249"/>
<polygon fill="#000000" stroke="#000000" points="949.9737,-252.5001 959.9737,-249 949.9737,-245.5001 949.9737,-252.5001"/>
</g>
<!-- UserInfoComponent  -->
<g id="node20" class="node">
<title>UserInfoComponent </title>
<polygon fill="#fb8072" stroke="#000000" points="330.0807,-122 195.9193,-122 195.9193,-86 330.0807,-86 330.0807,-122"/>
<text text-anchor="middle" x="263" y="-99.8" font-family="Times,serif" font-size="14.00" fill="#000000">UserInfoComponent </text>
</g>
<!-- UserInfoModule&#45;&gt;UserInfoComponent  -->
<g id="edge26" class="edge">
<title>UserInfoModule&#45;&gt;UserInfoComponent </title>
<path fill="none" stroke="#000000" stroke-dasharray="5,2" d="M827.6052,-161.9551C827.6052,-154.251 827.6052,-147 827.6052,-147 827.6052,-147 265.8592,-147 265.8592,-147 265.8592,-147 265.8592,-132.4854 265.8592,-132.4854"/>
<polygon fill="#000000" stroke="#000000" points="269.3593,-132.4854 265.8592,-122.4854 262.3593,-132.4855 269.3593,-132.4854"/>
</g>
<!-- RouterModule.forRoot(args) -->
<g id="node8" class="node">
<title>RouterModule.forRoot(args)</title>
<polygon fill="#8dd3c7" stroke="#000000" points="544.8419,-198 541.8419,-202 520.8419,-202 517.8419,-198 367.1581,-198 367.1581,-162 544.8419,-162 544.8419,-198"/>
<text text-anchor="middle" x="456" y="-175.8" font-family="Times,serif" font-size="14.00" fill="#000000">RouterModule.forRoot(args)</text>
</g>
<!-- RouterModule.forRoot(args)&#45;&gt;AppModule -->
<g id="edge7" class="edge">
<title>RouterModule.forRoot(args)&#45;&gt;AppModule</title>
<path fill="none" stroke="#000000" d="M456,-198.0759C456,-233.7964 456,-310 456,-310 456,-310 701.0771,-310 701.0771,-310"/>
<polygon fill="#000000" stroke="#000000" points="701.0771,-313.5001 711.0771,-310 701.077,-306.5001 701.0771,-313.5001"/>
</g>
<!-- HeaderService -->
<g id="node10" class="node">
<title>HeaderService</title>
<ellipse fill="#fdb462" stroke="#000000" cx="116" cy="-245" rx="67.7336" ry="18"/>
<text text-anchor="middle" x="116" y="-240.8" font-family="Times,serif" font-size="14.00" fill="#000000">HeaderService</text>
</g>
<!-- HeaderService&#45;&gt;AppModule -->
<g id="edge9" class="edge">
<title>HeaderService&#45;&gt;AppModule</title>
<path fill="none" stroke="#000000" d="M116,-263.2921C116,-285.2057 116,-319 116,-319 116,-319 701.2047,-319 701.2047,-319"/>
<polygon fill="#000000" stroke="#000000" points="701.2047,-322.5001 711.2047,-319 701.2046,-315.5001 701.2047,-322.5001"/>
</g>
<!-- ChatbotService -->
<g id="node11" class="node">
<title>ChatbotService</title>
<ellipse fill="#fdb462" stroke="#000000" cx="272" cy="-245" rx="70.6432" ry="18"/>
<text text-anchor="middle" x="272" y="-240.8" font-family="Times,serif" font-size="14.00" fill="#000000">ChatbotService</text>
</g>
<!-- ChatbotService&#45;&gt;AppModule -->
<g id="edge10" class="edge">
<title>ChatbotService&#45;&gt;AppModule</title>
<path fill="none" stroke="#000000" d="M330.7375,-235C454.771,-235 732.0859,-235 732.0859,-235 732.0859,-235 732.0859,-281.8446 732.0859,-281.8446"/>
<polygon fill="#000000" stroke="#000000" points="728.586,-281.8446 732.0859,-291.8446 735.586,-281.8446 728.586,-281.8446"/>
</g>
<!-- ChatComponent -->
<g id="node12" class="node">
<title>ChatComponent</title>
<polygon fill="#ffffb3" stroke="#000000" points="941.7744,-122 834.2256,-122 834.2256,-86 941.7744,-86 941.7744,-122"/>
<text text-anchor="middle" x="888" y="-99.8" font-family="Times,serif" font-size="14.00" fill="#000000">ChatComponent</text>
</g>
<!-- ChatComponent&#45;&gt;ChatModule -->
<g id="edge11" class="edge">
<title>ChatComponent&#45;&gt;ChatModule</title>
<path fill="none" stroke="#000000" d="M937.7679,-122.0411C937.7679,-159.4476 937.7679,-242 937.7679,-242 937.7679,-242 949.8525,-242 949.8525,-242"/>
<polygon fill="#000000" stroke="#000000" points="949.8525,-245.5001 959.8525,-242 949.8525,-238.5001 949.8525,-245.5001"/>
</g>
<!-- FormsModule -->
<g id="node13" class="node">
<title>FormsModule</title>
<polygon fill="#8dd3c7" stroke="#000000" points="1061.8288,-122 1058.8288,-126 1037.8288,-126 1034.8288,-122 966.1712,-122 966.1712,-86 1061.8288,-86 1061.8288,-122"/>
<text text-anchor="middle" x="1014" y="-99.8" font-family="Times,serif" font-size="14.00" fill="#000000">FormsModule</text>
</g>
<!-- FormsModule&#45;&gt;HomeModule -->
<g id="edge18" class="edge">
<title>FormsModule&#45;&gt;HomeModule</title>
<path fill="none" stroke="#000000" d="M1006.1084,-122.0109C1006.1084,-122.0109 1006.1084,-151.855 1006.1084,-151.855"/>
<polygon fill="#000000" stroke="#000000" points="1002.6084,-151.8549 1006.1084,-161.855 1009.6084,-151.855 1002.6084,-151.8549"/>
</g>
<!-- FormsModule&#45;&gt;ChatModule -->
<g id="edge12" class="edge">
<title>FormsModule&#45;&gt;ChatModule</title>
<path fill="none" stroke="#000000" d="M1053.83,-122.2067C1053.83,-159.0559 1053.83,-239 1053.83,-239 1053.83,-239 1053.0799,-239 1053.0799,-239"/>
<polygon fill="#000000" stroke="#000000" points="1056.3299,-235.5001 1046.3298,-239 1056.3298,-242.5001 1056.3299,-235.5001"/>
</g>
<!-- FormsModule&#45;&gt;UserInfoModule -->
<g id="edge23" class="edge">
<title>FormsModule&#45;&gt;UserInfoModule</title>
<path fill="none" stroke="#000000" d="M966.0226,-104C955.2837,-104 947.0032,-104 947.0032,-104 947.0032,-104 947.0032,-180 947.0032,-180 947.0032,-180 943.8915,-180 943.8915,-180"/>
<polygon fill="#000000" stroke="#000000" points="943.8915,-176.5001 933.8915,-180 943.8914,-183.5001 943.8915,-176.5001"/>
</g>
<!-- CommonModule -->
<g id="node14" class="node">
<title>CommonModule</title>
<polygon fill="#8dd3c7" stroke="#000000" points="1190.6681,-122 1187.6681,-126 1166.6681,-126 1163.6681,-122 1079.3319,-122 1079.3319,-86 1190.6681,-86 1190.6681,-122"/>
<text text-anchor="middle" x="1135" y="-99.8" font-family="Times,serif" font-size="14.00" fill="#000000">CommonModule</text>
</g>
<!-- CommonModule&#45;&gt;HomeModule -->
<g id="edge19" class="edge">
<title>CommonModule&#45;&gt;HomeModule</title>
<path fill="none" stroke="#000000" d="M1153.6113,-122.0267C1153.6113,-142.7672 1153.6113,-174 1153.6113,-174 1153.6113,-174 1055.8081,-174 1055.8081,-174"/>
<polygon fill="#000000" stroke="#000000" points="1055.8081,-170.5001 1045.8081,-174 1055.808,-177.5001 1055.8081,-170.5001"/>
</g>
<!-- CommonModule&#45;&gt;ChatModule -->
<g id="edge13" class="edge">
<title>CommonModule&#45;&gt;ChatModule</title>
<path fill="none" stroke="#000000" d="M1079.2201,-104C1071.3624,-104 1065.8962,-104 1065.8962,-104 1065.8962,-104 1065.8962,-251 1065.8962,-251 1065.8962,-251 1055.9954,-251 1055.9954,-251"/>
<polygon fill="#000000" stroke="#000000" points="1055.9955,-247.5001 1045.9954,-251 1055.9954,-254.5001 1055.9955,-247.5001"/>
</g>
<!-- CommonModule&#45;&gt;UserInfoModule -->
<g id="edge24" class="edge">
<title>CommonModule&#45;&gt;UserInfoModule</title>
<path fill="none" stroke="#000000" d="M1116.3887,-122.1467C1116.3887,-135.7395 1116.3887,-152 1116.3887,-152 1116.3887,-152 883.8808,-152 883.8808,-152 883.8808,-152 883.8808,-152.9793 883.8808,-152.9793"/>
<polygon fill="#000000" stroke="#000000" points="880.3809,-151.793 883.8808,-161.793 887.3809,-151.7931 880.3809,-151.793"/>
</g>
<!-- RouterModule.forChild(args) -->
<g id="node15" class="node">
<title>RouterModule.forChild(args)</title>
<polygon fill="#8dd3c7" stroke="#000000" points="1389.7323,-122 1386.7323,-126 1365.7323,-126 1362.7323,-122 1208.2677,-122 1208.2677,-86 1389.7323,-86 1389.7323,-122"/>
<text text-anchor="middle" x="1299" y="-99.8" font-family="Times,serif" font-size="14.00" fill="#000000">RouterModule.forChild(args)</text>
</g>
<!-- RouterModule.forChild(args)&#45;&gt;HomeModule -->
<g id="edge20" class="edge">
<title>RouterModule.forChild(args)&#45;&gt;HomeModule</title>
<path fill="none" stroke="#000000" d="M1299,-122.1985C1299,-146.3563 1299,-186 1299,-186 1299,-186 1055.875,-186 1055.875,-186"/>
<polygon fill="#000000" stroke="#000000" points="1055.875,-182.5001 1045.875,-186 1055.875,-189.5001 1055.875,-182.5001"/>
</g>
<!-- RouterModule.forChild(args)&#45;&gt;ChatModule -->
<g id="edge15" class="edge">
<title>RouterModule.forChild(args)&#45;&gt;ChatModule</title>
<path fill="none" stroke="#000000" d="M1344.3081,-122.1154C1344.3081,-151.9121 1344.3081,-208 1344.3081,-208 1344.3081,-208 988.6297,-208 988.6297,-208 988.6297,-208 988.6297,-216.9336 988.6297,-216.9336"/>
<polygon fill="#000000" stroke="#000000" points="985.1298,-216.9335 988.6297,-226.9336 992.1298,-216.9336 985.1298,-216.9335"/>
</g>
<!-- RouterModule.forChild(args)&#45;&gt;UserInfoModule -->
<g id="edge25" class="edge">
<title>RouterModule.forChild(args)&#45;&gt;UserInfoModule</title>
<path fill="none" stroke="#000000" d="M1253.6919,-122.2396C1253.6919,-137.5706 1253.6919,-157 1253.6919,-157 1253.6919,-157 908.7648,-157 908.7648,-157 908.7648,-157 908.7648,-157.4878 908.7648,-157.4878"/>
<polygon fill="#000000" stroke="#000000" points="905.265,-151.8776 908.7648,-161.8777 912.265,-151.8778 905.265,-151.8776"/>
</g>
<!-- ChatService -->
<g id="node16" class="node">
<title>ChatService</title>
<ellipse fill="#fdb462" stroke="#000000" cx="1472" cy="-104" rx="58.4628" ry="18"/>
<text text-anchor="middle" x="1472" y="-99.8" font-family="Times,serif" font-size="14.00" fill="#000000">ChatService</text>
</g>
<!-- ChatService&#45;&gt;ChatModule -->
<g id="edge16" class="edge">
<title>ChatService&#45;&gt;ChatModule</title>
<path fill="none" stroke="#000000" d="M1472,-122.0636C1472,-154.2085 1472,-218 1472,-218 1472,-218 1017.2553,-218 1017.2553,-218 1017.2553,-218 1017.2553,-218.8841 1017.2553,-218.8841"/>
<polygon fill="#000000" stroke="#000000" points="1013.7554,-216.8408 1017.2553,-226.8408 1020.7554,-216.8409 1013.7554,-216.8408"/>
</g>
<!-- HomeComponent -->
<g id="node17" class="node">
<title>HomeComponent</title>
<polygon fill="#ffffb3" stroke="#000000" points="793.5451,-122 678.4549,-122 678.4549,-86 793.5451,-86 793.5451,-122"/>
<text text-anchor="middle" x="736" y="-99.8" font-family="Times,serif" font-size="14.00" fill="#000000">HomeComponent</text>
</g>
<!-- HomeComponent&#45;&gt;HomeModule -->
<g id="edge17" class="edge">
<title>HomeComponent&#45;&gt;HomeModule</title>
<path fill="none" stroke="#000000" d="M746.6427,-122.1223C746.6427,-124.9729 746.6427,-127 746.6427,-127 746.6427,-127 961.597,-127 961.597,-127 961.597,-127 961.597,-151.7604 961.597,-151.7604"/>
<polygon fill="#000000" stroke="#000000" points="958.0971,-151.7604 961.597,-161.7604 965.0971,-151.7604 958.0971,-151.7604"/>
</g>
<!-- HomeService -->
<g id="node18" class="node">
<title>HomeService</title>
<ellipse fill="#fdb462" stroke="#000000" cx="590" cy="-104" rx="63.6813" ry="18"/>
<text text-anchor="middle" x="590" y="-99.8" font-family="Times,serif" font-size="14.00" fill="#000000">HomeService</text>
</g>
<!-- HomeService&#45;&gt;HomeModule -->
<g id="edge21" class="edge">
<title>HomeService&#45;&gt;HomeModule</title>
<path fill="none" stroke="#000000" d="M608.1301,-121.2545C608.1301,-127.0166 608.1301,-132 608.1301,-132 608.1301,-132 956.8581,-132 956.8581,-132 956.8581,-132 956.8581,-151.8533 956.8581,-151.8533"/>
<polygon fill="#000000" stroke="#000000" points="953.3582,-151.8532 956.8581,-161.8533 960.3582,-151.8533 953.3582,-151.8532"/>
</g>
<!-- UserInfoComponent -->
<g id="node19" class="node">
<title>UserInfoComponent</title>
<polygon fill="#ffffb3" stroke="#000000" points="485.58,-122 354.42,-122 354.42,-86 485.58,-86 485.58,-122"/>
<text text-anchor="middle" x="420" y="-99.8" font-family="Times,serif" font-size="14.00" fill="#000000">UserInfoComponent</text>
</g>
<!-- UserInfoComponent&#45;&gt;UserInfoModule -->
<g id="edge22" class="edge">
<title>UserInfoComponent&#45;&gt;UserInfoModule</title>
<path fill="none" stroke="#000000" d="M426.4346,-122.1097C426.4346,-131.897 426.4346,-142 426.4346,-142 426.4346,-142 830.859,-142 830.859,-142 830.859,-142 830.859,-151.8903 830.859,-151.8903"/>
<polygon fill="#000000" stroke="#000000" points="827.3591,-151.8903 830.859,-161.8903 834.3591,-151.8904 827.3591,-151.8903"/>
</g>
<!-- UserInfoService -->
<g id="node21" class="node">
<title>UserInfoService</title>
<ellipse fill="#fdb462" stroke="#000000" cx="98" cy="-104" rx="74.1143" ry="18"/>
<text text-anchor="middle" x="98" y="-99.8" font-family="Times,serif" font-size="14.00" fill="#000000">UserInfoService</text>
</g>
<!-- UserInfoService&#45;&gt;UserInfoModule -->
<g id="edge27" class="edge">
<title>UserInfoService&#45;&gt;UserInfoModule</title>
<path fill="none" stroke="#000000" d="M110.2201,-122.0449C110.2201,-129.749 110.2201,-137 110.2201,-137 110.2201,-137 858.9969,-137 858.9969,-137 858.9969,-137 858.9969,-151.5146 858.9969,-151.5146"/>
<polygon fill="#000000" stroke="#000000" points="855.4969,-151.5145 858.9969,-161.5146 862.4969,-151.5146 855.4969,-151.5145"/>
</g>
</g>
</svg>
